<svg width="200" height="201" viewBox="0 0 200 201" fill="none" xmlns="http://www.w3.org/2000/svg">
<path opacity="0.5" d="M15 100.008C15 52.9219 52.914 15.0079 100 15.0079C113.336 15.0079 126.664 18.3439 138.75 24.1719H132.086C127.922 24.1719 124.586 27.5079 124.586 31.6719C124.586 35.8359 127.922 39.1719 132.086 39.1719H155C160 39.1719 163.75 35.0079 163.75 30.4219V7.50794C163.75 3.34394 160.414 0.00794 156.25 0.00794C152.086 0.00794 148.75 3.34394 148.75 7.50794V12.9219C148.336 12.5079 147.914 12.5079 147.5 12.086C132.914 4.172 116.664 0 100 0C45 0 0 45 0 100C0 116.664 4.164 133.336 12.086 147.914C13.336 150.414 15.836 151.664 18.75 151.664C20 151.664 21.25 151.25 22.5 150.828C26.25 148.742 27.5 144.164 25.414 140.828C18.3358 128.344 15 114.172 15 100.008V100.008Z" fill="#08B09C"/>
<path opacity="0.5" d="M187.914 52.0935C185.828 48.3435 181.25 47.0935 177.914 49.1795C174.164 51.2655 172.914 55.8435 175 59.1795C181.664 71.6795 185.414 85.4295 185.414 100.016C185.414 147.102 147.078 185.016 100.414 185.016C87.0781 185.016 73.7501 181.68 61.6641 175.852H68.3281C72.4921 175.852 75.8281 172.516 75.8281 168.352C75.8281 164.188 72.4921 160.852 68.3281 160.852H45.4141C40.4141 160.852 36.6641 165.016 36.6641 169.602V192.516C36.6641 196.68 40.0001 200.016 44.1641 200.016C48.3281 200.016 51.6641 196.68 51.6641 192.516V187.102C52.0781 187.516 52.5 187.516 52.9141 187.938C67.0781 195.852 83.3281 200.023 100 200.023C155 200.023 200 155.023 200 100.023C200 83.3439 195.836 66.6715 187.914 52.0935V52.0935Z" fill="#08B09C"/>
<path d="M123.336 75.0073L87.5001 108.343L77.5001 95.0073C75.0001 91.6713 70.4141 90.8433 67.0861 93.3433C63.7501 95.8433 62.9221 100.429 65.422 103.757L80.422 123.757C81.672 125.421 83.758 126.671 85.836 126.671H86.672C88.758 126.671 90.422 125.835 91.672 124.585L133.758 85.4213C136.672 82.5073 137.094 77.9213 134.172 75.0073C131.25 72.0933 126.25 72.0933 123.336 75.0073L123.336 75.0073Z" fill="#08B09C"/>
</svg>
