<svg width="180" height="200" viewBox="0 0 180 200" fill="none" xmlns="http://www.w3.org/2000/svg">
<g opacity="0.5">
<mask id="mask0" mask-type="alpha" maskUnits="userSpaceOnUse" x="0" y="0" width="180" height="200">
<path fill-rule="evenodd" clip-rule="evenodd" d="M0 0H179.545V200H0V0Z" fill="white"/>
</mask>
<g mask="url(#mask0)">
<path fill-rule="evenodd" clip-rule="evenodd" d="M89.6657 188.833C84.1757 188.833 79.751 184.409 79.751 178.94C79.751 173.462 84.1844 169.047 89.6657 169.047C95.1539 169.047 99.5787 173.464 99.5787 178.94C99.5787 184.416 95.1453 188.833 89.6657 188.833ZM95.1712 158.734L95.1643 145.117C93.393 145.326 91.5975 145.445 89.7727 145.445C87.8823 145.445 86.0247 145.317 84.193 145.093V158.734C75.3331 161.259 68.5846 169.26 68.5846 178.948C68.5846 190.526 78.0781 200 89.683 200C101.286 200 110.78 190.526 110.78 178.948C110.78 169.26 104.236 161.267 95.1712 158.734ZM158.233 149.467C152.745 149.467 148.32 145.043 148.32 139.574C148.32 134.098 152.753 129.681 158.233 129.681C163.721 129.681 168.148 134.107 168.148 139.574C168.148 145.043 163.721 149.467 158.233 149.467ZM158.235 118.524H158.233C152.538 118.524 147.264 120.841 143.464 124.626L131.655 117.798C130.162 121.295 128.24 124.566 125.958 127.547L137.772 134.312C137.351 135.997 136.931 137.683 136.931 139.576C136.931 151.153 146.424 160.628 158.029 160.628C169.632 160.628 179.126 151.153 179.126 139.576C179.117 127.997 169.838 118.524 158.235 118.524ZM21.0949 70.5224C15.6084 70.5224 11.1819 66.0982 11.1819 60.631C11.1819 55.1534 15.6153 50.7379 21.0949 50.7379C26.5848 50.7379 31.0096 55.162 31.0096 60.631C31.0096 66.0982 26.5848 70.5224 21.0949 70.5224ZM42.1949 60.4241C42.1949 48.8466 32.7014 39.3724 21.0966 39.3724C9.49519 39.3724 0 48.8466 0 60.4241C0 72.0035 9.49519 81.4759 21.0966 81.4759C27.0061 81.4759 32.2819 79.1586 36.08 75.1604L47.9404 82.081C49.4026 78.6776 51.2689 75.4931 53.4786 72.5776L41.5613 65.6879C41.9808 64.0035 42.1949 62.3155 42.1949 60.4241ZM21.0949 149.467C15.6084 149.467 11.1819 145.043 11.1819 139.574C11.1819 134.098 15.6153 129.681 21.0949 129.681C26.5848 129.681 31.0096 134.107 31.0096 139.574C31.0096 145.043 26.5848 149.467 21.0949 149.467ZM47.7625 117.49L35.6605 124.419C31.8624 120.841 26.8006 118.524 21.1069 118.524C9.50209 118.524 0.00690113 127.997 0.00690113 139.576C0.00690113 151.153 9.50209 160.628 21.1069 160.628C32.7101 160.628 42.2053 151.153 42.2053 139.576C42.2053 137.683 41.784 135.783 41.3628 133.893L53.2041 127.047C51.022 124.114 49.1903 120.907 47.7625 117.49ZM158.233 50.5241C163.721 50.5241 168.148 54.9483 168.148 60.4172C168.148 65.8931 163.721 70.5224 158.233 70.5224C152.743 70.5224 148.318 66.0983 148.318 60.631C148.318 55.1535 152.743 50.5241 158.233 50.5241ZM131.655 82.1931L143.464 75.3655C147.264 79.1586 152.538 81.469 158.447 81.469C170.052 81.469 179.545 71.9948 179.545 60.4172C179.545 48.8379 170.052 39.3655 158.447 39.3655C146.842 39.3655 137.349 48.8379 137.349 60.4172C137.349 62.3069 137.563 63.9948 138.19 65.6793L126.126 72.6552C128.334 75.5793 130.2 78.7793 131.655 82.1931ZM89.6657 30.9431C84.1757 30.9431 79.751 26.5276 79.751 21.0517C79.751 15.5741 84.1844 11.1586 89.6657 11.1586C95.1539 11.1586 99.5787 15.5828 99.5787 21.0517C99.5787 26.5276 95.1453 30.9431 89.6657 30.9431ZM90.0852 0C78.4804 0 68.5674 9.47241 68.5674 21.0517C68.5674 30.7379 75.1104 38.731 84.1758 41.2638V54.8983C86.0126 54.6741 87.8772 54.5448 89.7727 54.5448C91.7391 54.5448 93.6727 54.6828 95.5734 54.9259V41.2638C104.433 38.7397 111.184 30.7379 111.184 21.0517C111.184 9.47241 101.69 0 90.0852 0Z" fill="#08B09C"/>
</g>
</g>
<path fill-rule="evenodd" clip-rule="evenodd" d="M82.9096 110.501C82.7237 109.669 82.0067 109.102 81.2071 109.091C81.0928 109.089 80.975 109.1 80.8589 109.122L80.8417 109.1L70.4546 110.901C72.0576 115.432 75.0544 119.124 78.8167 121.591L82.8408 111.656L82.8107 111.616C82.9542 111.276 82.9966 110.89 82.9096 110.501Z" fill="#1FA68D"/>
<path fill-rule="evenodd" clip-rule="evenodd" d="M79.3984 101.727C79.7423 101.635 80.0627 101.44 80.3021 101.149C80.8864 100.438 80.7832 99.4129 80.0825 98.822L80.091 98.781L72.3287 92.0455C70.0251 95.6862 68.9337 100.053 69.4401 104.545L79.39 101.76L79.3984 101.727Z" fill="#1FA68D"/>
<path fill-rule="evenodd" clip-rule="evenodd" d="M84.2612 93.9723C84.5359 94.1903 84.8738 94.3182 85.2401 94.3182C86.134 94.3182 86.8621 93.5503 86.8997 92.5887L86.9399 92.5669L87.4999 81.8182C86.8316 81.9062 86.1608 82.029 85.4897 82.1946C81.8161 83.1013 78.6283 85.0696 76.1362 87.7333L84.245 93.9809L84.2612 93.9723Z" fill="#1FA68D"/>
<path fill-rule="evenodd" clip-rule="evenodd" d="M87.0413 105.463L89.7766 106.818L92.5039 105.467L93.1817 102.432L91.2936 100H88.2557L86.3635 102.428L87.0413 105.463Z" fill="#1FA68D"/>
<path fill-rule="evenodd" clip-rule="evenodd" d="M92.6168 92.5866C92.6313 92.957 92.7519 93.324 92.9816 93.6362C93.5424 94.3981 94.556 94.5394 95.2753 93.97L95.3037 93.9832L103.409 87.7557C100.351 84.5105 96.3604 82.3932 92.0454 81.8182L92.6088 92.5822L92.6168 92.5866Z" fill="#1FA68D"/>
<mask id="mask1" mask-type="alpha" maskUnits="userSpaceOnUse" x="42" y="54" width="96" height="94">
<path fill-rule="evenodd" clip-rule="evenodd" d="M42.0454 54.5501H137.479V147.982H42.0454V54.5501Z" fill="white"/>
</mask>
<g mask="url(#mask1)">
<path fill-rule="evenodd" clip-rule="evenodd" d="M124.698 110.965C124.457 112.035 123.313 112.685 122.136 112.429C122.127 112.427 122.115 112.427 122.106 112.425C122.093 112.422 122.081 112.415 122.068 112.412C121.904 112.376 121.698 112.34 121.554 112.301C120.875 112.117 120.383 111.843 119.772 111.607C118.458 111.132 117.37 110.734 116.31 110.58C115.771 110.537 115.497 110.796 115.198 110.995C115.053 110.966 114.606 110.886 114.349 110.845C112.447 116.879 108.395 122.103 102.901 125.376C102.996 125.607 103.157 126.098 103.232 126.185C103.107 126.523 102.918 126.847 103.079 127.367C103.465 128.375 104.089 129.361 104.84 130.548C105.205 131.096 105.577 131.518 105.905 132.145C105.984 132.295 106.088 132.526 106.164 132.684C106.675 133.786 106.3 135.055 105.32 135.531C104.332 136.012 103.103 135.505 102.575 134.397C102.499 134.24 102.393 134.031 102.328 133.883C102.047 133.233 101.949 132.676 101.751 132.047C101.301 130.714 100.93 129.61 100.389 128.677C100.087 128.226 99.7154 128.168 99.3752 128.056C99.3122 127.947 99.0774 127.512 98.9508 127.286C97.8539 127.704 96.7191 128.052 95.5435 128.322C90.3909 129.502 85.2328 129.023 80.6245 127.239L80.1748 128.061C79.84 128.151 79.5171 128.243 79.3191 128.481C78.5958 129.352 78.3071 130.749 77.7817 132.081C77.5838 132.71 77.4901 133.267 77.2088 133.917C77.1451 134.065 77.0383 134.27 76.9628 134.427C76.9622 134.428 76.9633 134.43 76.9628 134.431C76.9619 134.433 76.9594 134.434 76.9585 134.435C76.4285 135.54 75.204 136.045 74.2174 135.566C73.237 135.09 72.8627 133.82 73.373 132.719C73.4489 132.56 73.5489 132.329 73.6276 132.179C73.956 131.552 74.3286 131.126 74.6926 130.578C75.4444 129.391 76.1046 128.327 76.4901 127.318C76.5869 126.983 76.4435 126.524 76.3136 126.185L76.6742 125.312C71.3882 122.152 67.2138 117.115 65.2218 110.884L64.3562 111.034C64.1242 110.902 63.6576 110.592 63.2149 110.627C62.1545 110.782 61.0664 111.179 59.7524 111.654C59.1417 111.89 58.6496 112.16 57.9703 112.344C57.8266 112.382 57.6209 112.423 57.4569 112.459C57.4437 112.462 57.4319 112.469 57.4186 112.472C57.4098 112.474 57.3974 112.474 57.389 112.476C56.2115 112.732 55.0681 112.082 54.8261 111.012C54.584 109.943 55.336 108.857 56.5064 108.572C56.5151 108.57 56.5271 108.565 56.536 108.563C56.5419 108.562 56.5473 108.56 56.553 108.559C56.7195 108.519 56.9314 108.464 57.0835 108.435C57.7745 108.303 58.3369 108.335 58.9887 108.281C60.3769 108.134 61.5268 108.015 62.5487 107.69C62.8726 107.556 63.1824 107.106 63.4016 106.821L64.2332 106.577C63.3014 100.065 64.8782 93.6744 68.2855 88.5006L67.6489 87.927C67.6083 87.677 67.555 87.0989 67.2502 86.771C66.4691 86.0311 65.4845 85.4174 64.2969 84.6774C63.7331 84.3428 63.2162 84.1269 62.6506 83.7055C62.5302 83.6159 62.3698 83.4786 62.2389 83.3716C62.2292 83.3639 62.2189 83.3579 62.2093 83.3502C61.2565 82.5837 61.0375 81.2612 61.7213 80.396C62.1058 79.9092 62.6935 79.6684 63.3039 79.6896C63.7788 79.7059 64.2704 79.8808 64.6873 80.2163C64.8227 80.3244 65.0075 80.4664 65.1286 80.5715C65.6616 81.0342 65.9867 81.4914 66.4355 81.9716C67.4149 82.9751 68.2243 83.8082 69.1128 84.412C69.5796 84.6862 69.938 84.5759 70.2925 84.5275C70.4065 84.6125 70.7903 84.8903 71.0095 85.0413C74.3894 81.4229 78.8289 78.7431 83.9853 77.5618C85.1835 77.2873 86.3832 77.1048 87.5749 77.0052L87.6216 76.1575C87.886 75.8991 88.1825 75.5276 88.2666 75.1214C88.3529 74.044 88.213 72.8848 88.0459 71.4865C87.9537 70.833 87.8004 70.2903 87.7744 69.5813C87.7689 69.4358 87.777 69.2344 87.7786 69.0676C87.7782 69.0487 87.7744 69.0307 87.7744 69.0118C87.7742 67.7823 88.6635 66.7855 89.7602 66.7855C90.8569 66.7854 91.7459 67.7823 91.746 69.0118C91.7465 69.1861 91.7562 69.4201 91.7502 69.5813C91.724 70.2903 91.5708 70.833 91.4786 71.4865C91.3116 72.8848 91.1674 74.044 91.2538 75.1214C91.3323 75.6606 91.6444 75.8735 91.903 76.1233C91.9089 76.2684 91.932 76.751 91.9497 77.0181C98.2637 77.584 104.128 80.4973 108.434 85.0542L109.19 84.5104C109.446 84.5256 110.01 84.6038 110.395 84.3778C111.283 83.774 112.093 82.9366 113.072 81.9331C113.521 81.4529 113.85 80.9958 114.383 80.533C114.505 80.4274 114.689 80.2859 114.825 80.1776C115.777 79.411 117.103 79.4923 117.786 80.3575C118.47 81.2224 118.251 82.5449 117.298 83.3116C117.164 83.4207 116.989 83.5716 116.861 83.667C116.295 84.0884 115.774 84.3042 115.211 84.6389C114.023 85.379 113.038 85.9925 112.257 86.7325C111.889 87.1305 111.916 87.5075 111.884 87.867C111.774 87.9691 111.385 88.3162 111.18 88.505C112.891 91.0755 114.175 93.9931 114.901 97.1833C115.62 100.344 115.733 103.503 115.317 106.538L116.119 106.774C116.263 106.979 116.559 107.48 116.976 107.643C117.998 107.967 119.148 108.087 120.536 108.234C121.188 108.288 121.75 108.256 122.441 108.388C122.606 108.419 122.848 108.486 123.018 108.525C124.189 108.81 124.94 109.895 124.698 110.965ZM137.32 111.402L129.122 75.4728C128.692 73.5892 127.429 72.0039 125.689 71.1658L92.5077 55.1791C91.5505 54.7175 90.4926 54.5042 89.4315 54.5583C88.5877 54.6012 87.7611 54.8123 87 55.1791L53.8227 71.1743C52.0832 72.0125 50.8198 73.5978 50.3899 75.4815L42.2048 111.411C41.823 113.083 42.1337 114.839 43.0662 116.279C43.1781 116.453 43.2985 116.621 43.4269 116.784L66.3909 145.593C67.595 147.103 69.4208 147.982 71.3512 147.982L108.178 147.974C110.108 147.975 111.933 147.097 113.138 145.589L136.094 116.775C137.298 115.264 137.75 113.286 137.32 111.402Z" fill="#1FA68D"/>
</g>
<path fill-rule="evenodd" clip-rule="evenodd" d="M107.159 92.0455L99.4554 98.768L99.4595 98.7885C99.191 99.0161 98.9927 99.3241 98.9074 99.6884C98.6996 100.577 99.2488 101.464 100.142 101.702L100.151 101.743L110.13 104.545C110.341 102.446 110.213 100.274 109.7 98.0982C109.181 95.8957 108.31 93.8643 107.159 92.0455Z" fill="#1FA68D"/>
<path fill-rule="evenodd" clip-rule="evenodd" d="M91.3411 113.441C91.167 113.118 90.8901 112.849 90.5318 112.679C90.2586 112.548 89.9709 112.491 89.6875 112.501C89.064 112.524 88.4725 112.868 88.1607 113.445H88.1519L82.9546 122.746C86.5515 123.959 90.5237 124.23 94.5085 123.335C95.2196 123.175 95.9148 122.983 96.591 122.759L91.3805 113.441H91.3411Z" fill="#1FA68D"/>
<path fill-rule="evenodd" clip-rule="evenodd" d="M98.6684 109.123C98.5355 109.098 98.3994 109.086 98.2628 109.093C98.0351 109.105 97.8067 109.164 97.5882 109.272C96.7346 109.692 96.3632 110.725 96.7343 111.606L96.7214 111.623L100.761 121.591C104.654 119.057 107.568 115.27 109.091 110.899L98.6855 109.102L98.6684 109.123Z" fill="#1FA68D"/>
</svg>
