<svg width="207" height="200" viewBox="0 0 207 200" fill="none" xmlns="http://www.w3.org/2000/svg">
<path d="M131.034 137.932H75.8618V27.5883H131.034V137.932ZM82.7583 131.036H124.137V34.4848H82.7583V131.036Z" fill="#08B09C"/>
<path d="M89.6548 41.3813H117.241V48.2778H89.6548V41.3813Z" fill="#08B09C"/>
<path d="M89.6548 55.1743H117.241V62.0708H89.6548V55.1743Z" fill="#08B09C"/>
<path d="M89.6548 68.9673H117.241V75.8639H89.6548V68.9673Z" fill="#08B09C"/>
<path d="M48.2754 13.7952H75.8614V20.6917H48.2754V13.7952Z" fill="#08B09C"/>
<path d="M131.034 13.7952H158.62V20.6917H131.034V13.7952Z" fill="#08B09C"/>
<path d="M137.93 27.5883H158.62V34.4848H137.93V27.5883Z" fill="#08B09C"/>
<path d="M137.93 41.3813H158.62V48.2778H137.93V41.3813Z" fill="#08B09C"/>
<path d="M48.2754 27.5883H68.9649V34.4848H48.2754V27.5883Z" fill="#08B09C"/>
<path d="M48.2754 41.3813H68.9649V48.2778H48.2754V41.3813Z" fill="#08B09C"/>
<path d="M110.344 117.241C110.344 126.439 96.5513 126.439 96.5513 117.241C96.5513 108.042 110.344 108.042 110.344 117.241Z" fill="#08B09C"/>
<path d="M68.9649 89.6546C68.9649 98.8529 55.1719 98.8529 55.1719 89.6546C55.1719 80.4563 68.9649 80.4563 68.9649 89.6546Z" fill="#08B09C"/>
<path d="M151.723 89.6546C151.723 98.8529 137.93 98.8529 137.93 89.6546C137.93 80.4563 151.723 80.4563 151.723 89.6546Z" fill="#08B09C"/>
<path d="M117.241 0.00109863V20.6906H124.137V6.89761H165.516V103.449H137.93V110.345H172.413V0.00109863H117.241Z" fill="#08B09C"/>
<path d="M68.965 103.448H41.3789V6.89651H82.758V20.6895H89.6545V0H34.4824V110.344H68.965V103.448Z" fill="#08B09C"/>
<path opacity="0.5" d="M137.93 182.759C137.93 176.897 133.448 172.414 127.586 172.414H106.896V144.828H99.9995V172.414H79.3099C73.448 172.414 68.9651 176.897 68.9651 182.759H0V189.655H68.9651C68.9651 195.517 73.4478 200 79.3099 200H127.586C133.447 200 137.93 195.517 137.93 189.655H206.895V182.759H137.93ZM131.034 189.655C131.034 191.724 129.654 193.103 127.586 193.103H79.3099C77.241 193.103 75.8616 191.724 75.8616 189.655V182.759C75.8616 180.69 77.241 179.31 79.3099 179.31H127.586C129.654 179.31 131.034 180.69 131.034 182.759V189.655Z" fill="#08B09C"/>
</svg>
