<svg width="127" height="205" viewBox="0 0 127 205" fill="none" xmlns="http://www.w3.org/2000/svg">
<path opacity="0.5" d="M35.7408 126.043H99.1757" stroke="#08B09C" stroke-width="7" stroke-linecap="round"/>
<path opacity="0.5" d="M35.7408 152.192H99.1757" stroke="#08B09C" stroke-width="7" stroke-linecap="round"/>
<path opacity="0.5" d="M35.7408 178.34H99.1757" stroke="#08B09C" stroke-width="7" stroke-linecap="round"/>
<path fill-rule="evenodd" clip-rule="evenodd" d="M85.3536 58.2498L78.3536 58.2498L78.3536 99.6734L78.3536 106.673L85.3536 106.673L119.777 106.673L126.777 106.673L126.777 99.6734L85.3536 99.6734L85.3536 65.2498L85.3536 58.2498Z" fill="#08B09C"/>
<path opacity="0.5" d="M22.4719 48.5791L32.9553 59.0625L54.9398 37.0779" stroke="#08B09C" stroke-width="7" stroke-linecap="round" stroke-linejoin="round"/>
<path d="M4.32513 24.3426V20.8426C2.39214 20.8426 0.825134 22.4096 0.825134 24.3426H4.32513ZM38.7059 4.48898L41.7584 2.7766C41.139 1.67255 39.9718 0.988983 38.7059 0.988983C37.44 0.988983 36.2727 1.67255 35.6534 2.7766L38.7059 4.48898ZM38.7059 91.6514L37.1438 94.7835C38.1274 95.274 39.2843 95.274 40.2679 94.7835L38.7059 91.6514ZM73.0866 24.3426H76.5866C76.5866 22.4096 75.0196 20.8426 73.0866 20.8426V24.3426ZM4.32513 27.8426C24.6305 27.8426 37.6801 13.4714 41.7584 6.20136L35.6534 2.7766C32.3067 8.74235 21.2091 20.8426 4.32513 20.8426V27.8426ZM7.82513 50.9756V24.3426H0.825134V50.9756H7.82513ZM38.7059 91.6514C40.2679 88.5193 40.2686 88.5197 40.2692 88.5199C40.2692 88.52 40.2696 88.5202 40.2697 88.5202C40.2698 88.5202 40.2693 88.52 40.2684 88.5195C40.2665 88.5186 40.2625 88.5166 40.2565 88.5136C40.2446 88.5076 40.2246 88.4974 40.1968 88.4833C40.1411 88.4549 40.0542 88.4103 39.9382 88.3498C39.7061 88.2288 39.3577 88.0442 38.9096 87.7988C38.013 87.3078 36.7197 86.5746 35.1626 85.6204C32.0407 83.7074 27.8955 80.9292 23.7681 77.4584C15.3082 70.3444 7.82513 61.0811 7.82513 50.9756H0.825134C0.825134 64.3998 10.5325 75.4744 19.2629 82.8159C23.7306 86.5729 28.1806 89.5517 31.5052 91.5889C33.1712 92.6098 34.564 93.4 35.5475 93.9386C36.0395 94.208 36.4297 94.4148 36.7013 94.5564C36.8371 94.6272 36.9433 94.6818 37.0177 94.7197C37.0549 94.7387 37.0842 94.7535 37.1053 94.7642C37.1159 94.7695 37.1244 94.7738 37.1308 94.777C37.134 94.7786 37.1367 94.78 37.1389 94.781C37.14 94.7816 37.1412 94.7822 37.1418 94.7825C37.1429 94.783 37.1438 94.7835 38.7059 91.6514ZM38.7059 91.6514C40.2679 94.7835 40.2689 94.783 40.27 94.7825C40.2705 94.7822 40.2717 94.7816 40.2728 94.781C40.275 94.78 40.2777 94.7786 40.2809 94.777C40.2873 94.7738 40.2958 94.7695 40.3064 94.7642C40.3275 94.7535 40.3568 94.7387 40.394 94.7197C40.4685 94.6818 40.5746 94.6272 40.7104 94.5564C40.982 94.4148 41.3722 94.208 41.8642 93.9386C42.8477 93.4 44.2405 92.6098 45.9066 91.5889C49.2311 89.5517 53.6811 86.5729 58.1488 82.8159C66.8793 75.4744 76.5866 64.3998 76.5866 50.9756H69.5866C69.5866 61.0811 62.1036 70.3444 53.6436 77.4584C49.5162 80.9292 45.371 83.7074 42.2492 85.6204C40.692 86.5746 39.3988 87.3078 38.5021 87.7988C38.054 88.0442 37.7056 88.2288 37.4735 88.3498C37.3575 88.4103 37.2706 88.4549 37.215 88.4833C37.1871 88.4974 37.1671 88.5076 37.1552 88.5136C37.1492 88.5166 37.1453 88.5186 37.1434 88.5195C37.1424 88.52 37.142 88.5202 37.1421 88.5202C37.1421 88.5202 37.1425 88.52 37.1426 88.5199C37.1431 88.5197 37.1438 88.5193 38.7059 91.6514ZM76.5866 50.9756V24.3426H69.5866V50.9756H76.5866ZM73.0866 20.8426C56.2027 20.8426 45.105 8.74235 41.7584 2.7766L35.6534 6.20136C39.7317 13.4714 52.7812 27.8426 73.0866 27.8426V20.8426Z" fill="#08B09C"/>
<path fill-rule="evenodd" clip-rule="evenodd" d="M119.777 197.489H15.6237V74.6308C12.9804 71.8595 10.5486 68.8104 8.62366 65.5297V197.489V204.489H15.6237H119.777H126.777V197.489V100L85.5 58.2498H72.0037C71.284 60.6793 70.2357 63.0175 68.9507 65.2498H82.5771L119.777 102.876V197.489Z" fill="#08B09C"/>
</svg>
