<svg width="188" height="160" viewBox="0 0 188 160" fill="none" xmlns="http://www.w3.org/2000/svg">
<path opacity="0.5" d="M177.336 0H10.6641C5.14066 0 0.664062 4.4766 0.664062 10V150C0.664062 155.523 5.14066 160 10.6641 160H177.336C182.859 160 187.336 155.523 187.336 150V10C187.336 4.4766 182.859 0 177.336 0ZM10.6641 6.664H177.336C178.219 6.664 179.063 7.01556 179.688 7.64056C180.313 8.26556 180.664 9.11712 180.664 9.99996V26.664H7.33622V9.99996C7.33622 8.1562 8.8284 6.66396 10.6644 6.66396L10.6641 6.664ZM177.336 153.336H10.6641C8.82812 153.336 7.33586 151.844 7.33586 150V33.336H180.664V150C180.664 150.883 180.312 151.734 179.687 152.359C179.062 152.984 178.219 153.336 177.336 153.336L177.336 153.336Z" fill="#08B09C"/>
<path d="M174 16.6639C174 21.1093 167.336 21.1093 167.336 16.6639C167.336 12.2185 174 12.2185 174 16.6639Z" fill="#08B09C"/>
<path d="M160.664 16.6639C160.664 21.1093 154 21.1093 154 16.6639C154 12.2185 160.664 12.2185 160.664 16.6639Z" fill="#08B09C"/>
<path d="M147.336 16.6639C147.336 21.1093 140.664 21.1093 140.664 16.6639C140.664 12.2185 147.336 12.2185 147.336 16.6639Z" fill="#08B09C"/>
<path d="M94.0002 60C83.0862 59.8828 72.3602 62.789 63.0082 68.414C53.6566 74.0312 46.0472 82.1406 41.0322 91.836C40.5557 92.7735 40.5557 93.8906 41.0322 94.836C46.0478 104.524 53.6572 112.633 63.0082 118.258C72.3598 123.875 83.0862 126.789 94.0002 126.664C104.914 126.789 115.64 123.875 124.992 118.258C134.344 112.633 141.953 104.524 146.968 94.836C147.445 93.8907 147.445 92.7736 146.968 91.836C141.953 82.1406 134.343 74.0314 124.992 68.414C115.641 62.789 104.914 59.8828 94.0002 60ZM94.0002 120C84.6096 120.117 75.3596 117.703 67.2262 113.008C59.0934 108.312 52.3668 101.523 47.7652 93.336C52.3668 85.1484 59.0934 78.3516 67.2262 73.6564C75.359 68.9688 84.609 66.5548 94.0002 66.6642C103.391 66.5548 112.641 68.9688 120.774 73.6564C128.907 78.3518 135.634 85.1486 140.235 93.336C135.634 101.524 128.907 108.313 120.774 113.008C112.641 117.703 103.391 120.117 94.0002 120Z" fill="#08B09C"/>
<path d="M112.336 89.9999C111.547 89.539 110.61 89.4218 109.735 89.664C108.953 89.8827 108.149 89.9999 107.336 89.9999C101.813 89.9999 97.3363 85.5233 97.3363 79.9999C97.3284 79.1874 97.43 78.3827 97.6331 77.6015C97.9222 76.7187 97.8206 75.75 97.3675 74.9453C96.9144 74.1328 96.141 73.5469 95.2347 73.3359C94.8207 73.2812 94.4066 73.2812 94.0003 73.3359C85.9143 73.3359 78.6175 78.2031 75.5237 85.6797C72.4299 93.1563 74.1409 101.758 79.8597 107.476C85.5785 113.195 94.1801 114.905 101.656 111.812C109.125 108.718 114 101.421 114 93.3351C114.054 92.9211 114.054 92.507 114 92.1008C113.765 91.1945 113.156 90.4367 112.335 89.9992L112.336 89.9999ZM94.0003 106.664C87.2971 106.648 81.6565 101.656 80.8127 95.0155C79.9689 88.3671 84.1877 82.1249 90.6643 80.4295C90.8908 89.3045 98.0315 96.4373 106.899 96.6639C105.383 102.547 100.078 106.664 94.0003 106.664Z" fill="#08B09C"/>
</svg>
