<svg width="166" height="200" viewBox="0 0 166 200" fill="none" xmlns="http://www.w3.org/2000/svg">
<path fill-rule="evenodd" clip-rule="evenodd" d="M81.3279 37.6658C82.0338 37.3278 82.8004 37.1333 83.5829 37.0938C84.5672 37.0439 85.5483 37.2406 86.4362 37.6658L117.212 52.3967C118.825 53.169 119.997 54.6297 120.396 56.3654L127.999 89.4723C128.398 91.2088 127.979 93.0312 126.862 94.4234L105.571 120.974C104.453 122.364 102.76 123.172 100.97 123.171L66.8138 123.179C65.0232 123.179 63.3299 122.369 62.2132 120.978L40.9142 94.4313C40.7951 94.2816 40.6835 94.1262 40.5797 93.9657C39.7148 92.6393 39.4266 91.0213 39.7808 89.4802L47.3724 56.3733C47.771 54.6376 48.9428 53.1769 50.5562 52.4045L81.3279 37.6658ZM81.2603 49.9978C81.2602 48.8639 82.0891 47.9447 83.1115 47.9446C84.1339 47.9445 84.9626 48.8639 84.9627 49.9978C84.9629 50.0547 84.9642 50.1185 84.9655 50.1838L84.9655 50.1843C84.9678 50.3033 84.9702 50.4271 84.9667 50.523C84.9506 50.9544 84.8829 51.3191 84.8141 51.6903L84.814 51.6906C84.7786 51.882 84.7427 52.0751 84.7135 52.2801L84.7017 52.3781C84.5511 53.6241 84.4254 54.664 84.5039 55.6324C84.567 56.0615 84.7924 56.2666 85.0078 56.4627C85.0421 56.4938 85.076 56.5248 85.1091 56.5563C85.1145 56.6903 85.1361 57.1353 85.1526 57.3816C91.0386 57.9035 96.505 60.5904 100.52 64.793L101.224 64.2915C101.252 64.2932 101.285 64.2956 101.32 64.2984C101.585 64.3187 102.031 64.3529 102.347 64.1691C103.156 63.6258 103.894 62.8772 104.778 61.9811L104.843 61.9145C104.983 61.7669 105.11 61.6217 105.236 61.4778L105.236 61.4777L105.236 61.4776L105.236 61.4776L105.236 61.4775C105.488 61.1899 105.734 60.9078 106.066 60.6233C106.147 60.553 106.259 60.4656 106.363 60.3849L106.363 60.3847L106.363 60.3847L106.364 60.3844L106.365 60.3835L106.366 60.3823C106.405 60.352 106.443 60.3227 106.477 60.2956C107.365 59.5885 108.6 59.6636 109.238 60.4614C109.876 61.2592 109.671 62.4788 108.783 63.1859C108.742 63.2192 108.696 63.2568 108.649 63.2953L108.649 63.2958L108.648 63.2959C108.554 63.3735 108.455 63.455 108.376 63.5136C108.031 63.768 107.703 63.9411 107.371 64.1168C107.196 64.2097 107.019 64.3033 106.837 64.41L106.836 64.4108C105.729 65.093 104.812 65.6587 104.084 66.3408C103.786 66.6588 103.766 66.9622 103.746 67.2532C103.743 67.2981 103.74 67.3428 103.736 67.3871C103.686 67.4325 103.577 67.5302 103.455 67.6387L103.455 67.6387C103.324 67.7557 103.179 67.8852 103.079 67.9755C104.675 70.3462 105.871 73.0371 106.548 75.9791C107.219 78.8941 107.323 81.8074 106.936 84.6067L107.683 84.8239C107.697 84.8431 107.712 84.8651 107.729 84.8894L107.736 84.9009C107.884 85.1176 108.14 85.4926 108.482 85.6254C109.425 85.9219 110.486 86.0327 111.762 86.1663L111.801 86.1703C112.01 86.1877 112.209 86.1955 112.407 86.2032C112.784 86.218 113.155 86.2326 113.577 86.3125C113.673 86.3306 113.797 86.3613 113.915 86.3906L113.916 86.3906C113.987 86.4082 114.056 86.4253 114.115 86.4388C115.206 86.7017 115.907 87.703 115.682 88.6895C115.456 89.6761 114.39 90.2758 113.292 90.0399C113.29 90.0394 113.288 90.039 113.285 90.0386L113.279 90.0379C113.276 90.0376 113.272 90.0372 113.27 90.0368C113.268 90.0366 113.266 90.0363 113.265 90.0359C113.258 90.0345 113.252 90.0322 113.246 90.0299L113.241 90.028C113.237 90.0265 113.233 90.0251 113.229 90.0241C113.174 90.012 113.114 89.9999 113.053 89.9878L113.053 89.9877C112.945 89.9662 112.836 89.9443 112.75 89.9214C112.334 89.8102 111.993 89.6628 111.647 89.5131C111.466 89.4351 111.284 89.3564 111.089 89.2818L111.033 89.2617C109.833 88.8321 108.835 88.4746 107.861 88.3341C107.428 88.3001 107.178 88.4735 106.939 88.6394L106.939 88.6395L106.939 88.6395L106.911 88.659L106.874 88.684C106.858 88.6952 106.842 88.7062 106.825 88.7171C106.69 88.69 106.273 88.6165 106.034 88.5789C104.26 94.1437 100.483 98.9619 95.3619 101.98C95.3902 102.049 95.4249 102.142 95.4613 102.239C95.5383 102.446 95.6228 102.672 95.6704 102.727C95.6589 102.757 95.6468 102.788 95.6345 102.818C95.6295 102.831 95.6246 102.843 95.6196 102.855L95.6195 102.855C95.511 103.124 95.3985 103.403 95.528 103.816C95.8874 104.746 96.4687 105.656 97.1695 106.75C97.2856 106.923 97.4026 107.082 97.5185 107.24L97.5186 107.24C97.7416 107.544 97.9609 107.842 98.1624 108.223C98.2133 108.319 98.2758 108.451 98.3329 108.572L98.333 108.572L98.3335 108.573L98.3355 108.577C98.3597 108.628 98.3828 108.677 98.4037 108.72C98.8797 109.736 98.5304 110.907 97.6165 111.346C96.6955 111.789 95.5503 111.321 95.0573 110.3C95.0363 110.257 95.0127 110.209 94.9885 110.16L94.9879 110.159L94.9879 110.159C94.9308 110.045 94.8697 109.922 94.8279 109.826C94.6541 109.429 94.5554 109.069 94.4549 108.703C94.4038 108.516 94.3521 108.328 94.2899 108.132L94.2726 108.082C93.8601 106.875 93.5177 105.873 93.0202 105.025C92.7756 104.663 92.4827 104.576 92.2024 104.491C92.1595 104.478 92.1169 104.466 92.0748 104.452C92.0447 104.4 91.9723 104.269 91.8931 104.126L91.8914 104.123L91.8911 104.122L91.891 104.122C91.8164 103.987 91.7361 103.842 91.6792 103.741C90.6566 104.127 89.5987 104.448 88.5029 104.697C83.6995 105.786 78.891 105.344 74.5952 103.698L74.1759 104.456C73.8638 104.539 73.5628 104.624 73.3781 104.844C72.9043 105.408 72.6305 106.212 72.3397 107.067L72.3396 107.067C72.2166 107.428 72.0905 107.799 71.945 108.164C71.8817 108.363 71.8299 108.554 71.7785 108.743L71.7784 108.743C71.68 109.107 71.5833 109.464 71.4109 109.858C71.3712 109.948 71.3134 110.063 71.2584 110.173C71.2313 110.227 71.2048 110.28 71.1815 110.327C71.1813 110.328 71.1814 110.329 71.1815 110.329C71.1817 110.33 71.1818 110.331 71.1815 110.331C71.1812 110.332 71.1804 110.333 71.1795 110.333L71.1783 110.334L71.1776 110.335C70.6835 111.354 69.542 111.82 68.6223 111.378C67.7083 110.939 67.3593 109.768 67.8351 108.752C67.8608 108.699 67.8894 108.637 67.9189 108.573C67.9709 108.461 68.0257 108.343 68.0725 108.254C68.275 107.872 68.4955 107.57 68.7198 107.264L68.7198 107.264L68.7199 107.264L68.7199 107.264L68.72 107.264C68.8348 107.107 68.9505 106.949 69.0653 106.778C69.7661 105.683 70.3816 104.701 70.7409 103.771C70.8312 103.462 70.6975 103.039 70.5763 102.727L70.9126 101.921C65.9849 99.0064 62.0934 94.3613 60.2365 88.6144L59.4296 88.7526C59.4176 88.746 59.4049 88.7388 59.3917 88.7311C59.3778 88.7232 59.3632 88.7147 59.348 88.7059C59.115 88.571 58.7316 88.3489 58.3655 88.3775C57.3915 88.5182 56.392 88.8761 55.1908 89.3062L55.1378 89.3252C54.9459 89.3986 54.7667 89.4754 54.589 89.5516C54.2395 89.7015 53.8964 89.8487 53.4764 89.9609C53.3816 89.9862 53.2577 90.0124 53.1392 90.0373L53.1391 90.0374L53.1386 90.0375L53.1382 90.0375L53.138 90.0376L53.1379 90.0376C53.0895 90.0478 53.0421 90.0578 52.9978 90.0675C52.9919 90.069 52.9862 90.0711 52.9806 90.0733C52.9746 90.0756 52.9686 90.0779 52.9622 90.0793C52.9581 90.0803 52.9532 90.0808 52.9483 90.0813C52.9434 90.0819 52.9385 90.0824 52.9345 90.0833C51.8369 90.3195 50.7711 89.7195 50.5454 88.7329C50.3197 87.7465 51.0207 86.7454 52.1118 86.4822C52.1158 86.4813 52.1207 86.4798 52.1255 86.4783L52.1255 86.4783L52.1257 86.4783L52.1258 86.4782C52.1305 86.4768 52.1353 86.4753 52.1395 86.4743L52.1468 86.4725C52.1496 86.4717 52.1524 86.471 52.1553 86.4704C52.2019 86.4595 52.2523 86.4472 52.3039 86.4346C52.4241 86.4054 52.5506 86.3746 52.6497 86.3559C53.0722 86.276 53.4431 86.2614 53.8197 86.2467H53.8198C54.0174 86.2389 54.2167 86.2311 54.4258 86.2137L54.4679 86.2093C55.7432 86.0759 56.8023 85.9651 57.7445 85.6688C58.0116 85.5595 58.2682 85.2227 58.4654 84.9641L58.4658 84.9636L58.4659 84.9634L58.4665 84.9626L58.467 84.962C58.4922 84.9289 58.5164 84.8971 58.5396 84.8673L59.3149 84.6422C58.4461 78.6369 59.9161 72.7431 63.0924 67.9715L62.4991 67.4424C62.4965 67.4265 62.4938 67.4092 62.491 67.3906C62.4894 67.3798 62.4877 67.3687 62.486 67.3572L62.486 67.3567L62.4859 67.3565C62.4475 67.0979 62.3804 66.6457 62.1273 66.3763C61.3992 65.694 60.4814 65.128 59.3742 64.4455C59.194 64.3397 59.0189 64.2467 58.8453 64.1546L58.8453 64.1546L58.8453 64.1546C58.5128 63.9781 58.186 63.8046 57.8394 63.5492C57.7592 63.49 57.6599 63.4084 57.5651 63.3306L57.5651 63.3306C57.5274 63.2996 57.4905 63.2693 57.4557 63.2412L57.4497 63.2368L57.4426 63.2319C57.4377 63.2285 57.4328 63.2252 57.4281 63.2214C56.5399 62.5146 56.3358 61.2949 56.9732 60.497C57.3317 60.0481 57.8795 59.826 58.4486 59.8454C58.8912 59.8606 59.3495 60.0219 59.7381 60.3311C59.7721 60.358 59.8095 60.3872 59.8482 60.4173L59.8484 60.4175L59.8487 60.4178C59.9533 60.4994 60.0672 60.5882 60.1495 60.6588C60.4783 60.9412 60.7222 61.2213 60.9707 61.5067L60.9707 61.5068C61.0979 61.6528 61.2262 61.8002 61.3678 61.95L61.4003 61.9829C62.2987 62.8938 63.0451 63.6506 63.8637 64.2007C64.2411 64.4201 64.5425 64.3726 64.8315 64.3271C64.8756 64.3201 64.9195 64.3132 64.9634 64.3073C65.0698 64.3857 65.4274 64.6419 65.6319 64.7811C68.7827 61.444 72.9212 58.9725 77.728 57.883C78.8451 57.6298 79.9634 57.4616 81.0744 57.3697L81.1179 56.5879C81.3644 56.3497 81.6408 56.007 81.7191 55.6324C81.7991 54.6456 81.671 53.5844 81.5167 52.3067V52.3067L81.5135 52.2801C81.4842 52.0751 81.4484 51.882 81.4129 51.6906L81.4129 51.6905L81.4129 51.6905L81.4129 51.6904L81.4129 51.6904L81.4129 51.6904L81.4129 51.6903L81.4129 51.6903C81.344 51.3191 81.2764 50.9544 81.2603 50.523C81.2569 50.4314 81.2593 50.3159 81.2616 50.2029V50.2027L81.2616 50.2023L81.2616 50.2019L81.2616 50.2014C81.2627 50.1493 81.2638 50.0976 81.2643 50.0491C81.2641 50.041 81.2632 50.033 81.2623 50.0249C81.2613 50.016 81.2603 50.007 81.2603 49.9978ZM80.2436 71.9715L80.7934 62.2778C80.1373 62.3572 79.4786 62.468 78.8196 62.6174C75.2122 63.435 72.082 65.2102 69.6348 67.6123L77.5974 73.2468L77.6132 73.2389C77.8829 73.4356 78.2148 73.5509 78.5744 73.5509C79.4522 73.5509 80.1672 72.8584 80.2041 71.9912L80.2436 71.9715ZM85.4333 62.2778C89.645 62.7949 93.54 64.6986 96.5247 67.6162L88.6136 73.2152L88.5859 73.2034C87.8837 73.7153 86.8944 73.5883 86.3471 72.9033C86.1229 72.6227 86.0052 72.2927 85.9911 71.9596L85.9832 71.9557L85.4333 62.2778ZM74.0177 77.7244L66.7474 71.233C64.5897 74.7418 63.5675 78.9505 64.0418 83.28L73.3611 80.595L73.369 80.5634C73.6912 80.4755 73.9913 80.2873 74.2155 80.0066C74.7628 79.3215 74.666 78.3333 74.0098 77.7639L74.0177 77.7244ZM99.4243 71.2369C100.505 72.9846 101.323 74.9368 101.809 77.0531C102.291 79.144 102.411 81.2312 102.213 83.2483L92.8462 80.5554L92.8383 80.5159C91.9995 80.2871 91.484 79.4354 91.6793 78.5811C91.7593 78.2312 91.9454 77.9351 92.1975 77.7164L92.1935 77.6967L99.4243 71.2369ZM84.5988 78.2257H81.6203L79.7651 80.5317L80.4297 83.4141L83.1115 84.7013L85.7855 83.4181L86.45 80.5356L84.5988 78.2257ZM91.169 86.1307C91.2956 86.1243 91.4216 86.1357 91.5448 86.1583L91.5606 86.1386L101.2 87.7654C99.7895 91.7219 97.09 95.1495 93.483 97.4432L89.741 88.4208L89.7529 88.405C89.4092 87.6077 89.7532 86.6728 90.544 86.2926C90.7465 86.1952 90.958 86.1413 91.169 86.1307ZM76.5452 87.4379C76.3743 86.6904 75.7144 86.1807 74.9788 86.1704C74.8737 86.1689 74.7653 86.1784 74.6584 86.1981L74.6426 86.1783L65.0859 87.7972C66.5608 91.8706 69.318 95.1906 72.7795 97.4079L76.4819 88.4763L76.4542 88.4408C76.5863 88.1346 76.6252 87.7878 76.5452 87.4379ZM83.0522 90.0833C83.3084 90.0739 83.5684 90.1263 83.8156 90.2452C84.1396 90.4009 84.3898 90.6461 84.5474 90.9401H84.583L89.294 99.4373C88.6826 99.6419 88.0541 99.8168 87.4112 99.9625C83.8082 100.779 80.2167 100.532 76.9646 99.4255L81.6638 90.944H81.6717C81.9536 90.4179 82.4884 90.1039 83.0522 90.0833Z" fill="#04AE99"/>
<g opacity="0.5">
<path fill-rule="evenodd" clip-rule="evenodd" d="M0 107.523V7.5016C0.078065 4.33693 3.41109 0.0488404 7.50625 0H157.631C161.56 0 165.137 3.57501 165.137 7.5016V107.523C165.137 128.017 153.566 144.934 138.475 159.332C126.002 171.231 110.873 181.837 96.1436 192.162C93.0512 194.329 89.9763 196.485 86.9474 198.637C84.416 200.454 80.7214 200.454 78.1901 198.637C75.1621 196.486 72.0883 194.331 68.9969 192.164C54.2657 181.838 39.1352 171.232 26.6622 159.332C11.5721 144.933 0 128.016 0 107.523ZM150.125 15.0032H15.0125L15.0099 107.523C15.0099 122.379 23.4154 135.449 37.0596 148.469C48.2135 159.119 62.6548 169.257 77.244 179.499C79.0182 180.745 80.7945 181.992 82.5674 183.242C84.3271 182.001 86.09 180.764 87.8509 179.528C102.455 169.277 116.911 159.13 128.075 148.469C141.719 135.449 150.125 122.37 150.125 107.523V15.0032Z" fill="#08B09C"/>
</g>
</svg>
